<?xml version="1.0" encoding="utf-8"?>
<!-- Generator: Adobe Illustrator 21.0.0, SVG Export Plug-In . SVG Version: 6.00 Build 0)  -->
<svg version="1.1" id="Layer_1" xmlns="http://www.w3.org/2000/svg" xmlns:xlink="http://www.w3.org/1999/xlink" x="0px" y="0px"
	 viewBox="0 0 1080 230" style="enable-background:new 0 0 1080 230;" xml:space="preserve">
<style type="text/css">
	.st0{fill:#1554E8;}
	.st1{fill:#FFA044;}
	.st2{fill:#FFFFFF;}
</style>
<polygon class="st0" points="20,110 20,100 30,100 30,90 80,90 80,100 90,100 90,120 100,120 100,160 110,160 110,190 100,190 
	100,200 80,200 80,210 50,210 50,200 30,200 30,190 10,190 10,110 "/>
<g>
	<g>
		<g>
			<rect x="10" y="160" class="st1" width="10" height="10"/>
		</g>
		<rect x="90" y="140" class="st1" width="10" height="10"/>
		<rect x="90" y="160" class="st1" width="10" height="10"/>
		<rect x="100" y="170" class="st1" width="10" height="10"/>
		<rect x="80" y="150" class="st1" width="10" height="10"/>
		<rect x="70" y="140" class="st1" width="10" height="10"/>
		<rect x="70" y="160" class="st1" width="10" height="10"/>
		<rect x="60" y="170" class="st1" width="10" height="10"/>
		<rect x="50" y="180" class="st1" width="10" height="10"/>
		<rect x="40" y="190" class="st1" width="10" height="10"/>
		<rect x="60" y="190" class="st1" width="10" height="10"/>
		<rect x="70" y="200" class="st1" width="10" height="10"/>
		<rect x="30" y="160" class="st1" width="10" height="10"/>
		<rect x="40" y="170" class="st1" width="10" height="10"/>
		<rect x="20" y="150" class="st1" width="10" height="10"/>
		<rect x="50" y="120" class="st1" width="10" height="10"/>
		<rect x="40" y="130" class="st1" width="10" height="10"/>
		<rect x="60" y="130" class="st1" width="10" height="10"/>
		<rect x="70" y="100" class="st1" width="10" height="10"/>
		<rect x="60" y="110" class="st1" width="10" height="10"/>
		<rect x="30" y="100" class="st1" width="10" height="10"/>
		<rect x="40" y="110" class="st1" width="10" height="10"/>
		<rect x="30" y="140" class="st1" width="10" height="10"/>
		<rect x="10" y="140" class="st1" width="10" height="10"/>
	</g>
</g>
<polygon class="st2" points="40,120 40,130 30,130 30,140 20,140 20,120 "/>
<polygon class="st2" points="30,190 30,200 50,200 50,210 80,210 80,200 100,200 100,190 110,190 110,160 100,160 100,120 110,120 
	110,150 120,150 120,200 110,200 110,210 90,210 90,220 40,220 40,210 20,210 20,200 0,200 0,190 "/>
<polygon class="st1" points="10,220 10,210 40,210 40,230 0,230 0,220 "/>
<polygon class="st1" points="110,210 110,200 130,200 130,210 140,210 140,220 150,220 150,230 100,230 100,220 90,220 90,210 "/>
<polygon class="st2" points="120,10 120,0 130,0 130,10 140,10 140,70 130,70 130,80 120,80 120,70 110,70 110,10 "/>
<rect x="130" y="30" class="st0" width="10" height="30"/>
<polygon class="st1" points="100,30 100,20 110,20 110,70 120,70 120,80 130,80 130,70 140,70 140,60 140,30 150,30 150,70 160,70 
	160,130 150,130 150,140 140,140 140,110 130,110 130,100 120,100 120,120 130,120 130,150 140,150 140,160 130,160 130,180 
	120,180 120,150 110,150 110,120 100,120 100,90 90,90 90,30 "/>
<rect x="140" y="80" transform="matrix(-1 -4.492907e-11 4.492907e-11 -1 290 170)" class="st0" width="10" height="10"/>
<g>
	<path class="st2" d="M348.5,24.7v21.5h-53.9v22.3H343v20.6h-48.5v22.5h55.6V133h-79.8V24.7H348.5z"/>
	<path class="st2" d="M459.4,64.8L430.1,124h-14.4l-29.1-59.2V133h-24.2V24.7h32.7L423,84.2l28.1-59.5h32.5V133h-24.2V64.8z"/>
	<path class="st2" d="M529.6,105c4,5,9.5,7.5,16.3,7.5c6.8,0,12.2-2.5,16.2-7.5c4-5,6-11.9,6-20.5V24.7h24.2v60.6
		c0,15.7-4.3,27.8-13,36.2c-8.7,8.4-19.8,12.6-33.3,12.6c-13.5,0-24.7-4.2-33.4-12.7c-8.7-8.5-13.1-20.5-13.1-36.1V24.7h24.2v59.8
		C523.6,93.2,525.6,100,529.6,105z"/>
	<path class="st2" d="M608.1,133V24.7h24.2v86.8h46.2V133H608.1z"/>
	<path class="st2" d="M764,133l-10.1-23.4h-45.4L698.4,133h-25.7l46.8-108.3h23.4L789.7,133H764z M731.3,56.9l-13.6,31.5h27.1
		L731.3,56.9z"/>
	<path class="st2" d="M831,45.6V133h-24.2V45.6h-30.7V24.7h85.6v20.9H831z"/>
	<path class="st2" d="M958.2,118.1c-11,10.7-24.4,16-40.5,16c-16,0-29.5-5.3-40.5-16c-11-10.7-16.4-24-16.4-39.9
		c0-15.9,5.5-29.2,16.4-39.9c11-10.7,24.4-16,40.5-16c16,0,29.5,5.3,40.5,16c11,10.7,16.4,24,16.4,39.9
		C974.6,94.1,969.2,107.4,958.2,118.1z M950,78.2c0-9.7-3.1-17.9-9.3-24.7c-6.2-6.8-13.8-10.2-22.9-10.2c-9,0-16.7,3.4-22.9,10.2
		c-6.2,6.8-9.3,15.1-9.3,24.7c0,9.7,3.1,17.9,9.3,24.6c6.2,6.8,13.8,10.2,22.9,10.2c9,0,16.7-3.4,22.9-10.2
		C946.9,96.1,950,87.9,950,78.2z"/>
	<path class="st2" d="M1073.2,60.6c0,17.4-6.9,28.6-20.6,33.6L1080,133h-29.8l-24-34.6h-16.7V133h-24.2V24.7h41.1
		c16.8,0,28.9,2.8,36,8.5C1069.6,38.9,1073.2,48,1073.2,60.6z M1044,73.5c3-2.7,4.5-6.9,4.5-12.8c0-5.8-1.6-9.8-4.7-12
		c-3.1-2.2-8.5-3.3-16.3-3.3h-18.1v32.1h17.7C1035.4,77.5,1041,76.2,1044,73.5z"/>
</g>
<g>
	<path class="st2" d="M313,204.7v17.5c-4.8,3.8-11.5,6.3-17.9,6.3c-14,0-25.2-10.8-25.2-24.4c0-13.6,11.2-24.3,25.5-24.3
		c6.7,0,13.2,2.6,17.8,6.6l-3.2,4.1c-3.9-3.5-9.2-5.6-14.6-5.6c-11,0-19.9,8.5-19.9,19.1c0,10.7,8.9,19.2,19.9,19.2
		c4.3,0,9-1.5,12.7-4.1v-14.6H313z"/>
	<path class="st2" d="M355.4,216.1l-5.4,12.2h-5.9l21.7-48.3h5.7l21.6,48.3h-6l-5.4-12.2H355.4z M368.5,186.3l-10.8,24.5h21.7
		L368.5,186.3z"/>
	<path class="st2" d="M469.3,228.3l-0.1-39.8l-17.6,34.7h-3.3l-17.5-34.7v39.8h-5.2V180h6.8l17.7,34.8l17.6-34.8h6.8v48.3H469.3z"/>
	<path class="st2" d="M519.5,185.3v15.9h24.4v5.3h-24.4v16.6h28.2v5.2H514V180h32.8v5.3H519.5z"/>
	<path class="st2" d="M613.4,184.3l-2.3,5.2c-4.3-2.9-9.5-4.1-13.3-4.1c-6.2,0-10.3,2.3-10.3,6.4c0,12.4,27.2,5.9,27.1,23.5
		c0,8.1-7.1,13.2-17.5,13.2c-7,0-13.9-3-18.5-7.4l2.5-5c4.5,4.3,10.6,6.8,16.1,6.8c7,0,11.3-2.8,11.3-7.5
		c0.1-12.7-27.1-5.9-27.1-23.3c0-7.6,6.7-12.5,16.7-12.5C603.7,179.8,609.4,181.6,613.4,184.3z"/>
	<path class="st2" d="M740.5,204.2c0,13.6-11.2,24.4-25.3,24.4c-14.1,0-25.3-10.8-25.3-24.4c0-13.7,11.2-24.3,25.3-24.3
		C729.3,179.9,740.5,190.6,740.5,204.2z M695.5,204.2c0,10.6,9,19.1,19.7,19.1s19.6-8.5,19.6-19.1c0-10.6-8.8-19-19.6-19
		S695.5,193.5,695.5,204.2z"/>
	<path class="st2" d="M809.9,228.3l-29-38.8v38.8h-5.5V180h5.7l29,38.8V180h5.5v48.3H809.9z"/>
	<path class="st2" d="M881.8,223.1v5.2h-26.7V180h5.5v43.1H881.8z"/>
	<path class="st2" d="M915.6,228.3V180h5.5v48.3H915.6z"/>
	<path class="st2" d="M995.1,228.3l-29-38.8v38.8h-5.5V180h5.7l29,38.8V180h5.5v48.3H995.1z"/>
	<path class="st2" d="M1045.8,185.3v15.9h24.4v5.3h-24.4v16.6h28.2v5.2h-33.7V180h32.8v5.3H1045.8z"/>
</g>
</svg>
